<svg id="Layer_1" data-name="Layer 1" xmlns="http://www.w3.org/2000/svg" viewBox="0 0 619 416"><defs><style>.cls-1,.cls-11,.cls-12,.cls-13,.cls-14,.cls-15,.cls-16,.cls-2,.cls-3,.cls-4,.cls-5,.cls-6,.cls-7{fill:none;stroke-miterlimit:10;}.cls-1{stroke:gray;}.cls-11,.cls-2,.cls-3{stroke:red;}.cls-14,.cls-15,.cls-16,.cls-2,.cls-3,.cls-4,.cls-5,.cls-6,.cls-7{stroke-width:2px;}.cls-3{stroke-dasharray:5.91 5.91;}.cls-12,.cls-4,.cls-5{stroke:#39b54a;}.cls-5{stroke-dasharray:6.07 6.07;}.cls-13,.cls-6,.cls-7{stroke:#0083cc;}.cls-7{stroke-dasharray:5.76 5.76;}.cls-8{fill:#252526;}.cls-9{font-size:15.87px;fill:#fff;font-family:Consolas;}.cls-10{letter-spacing:1.16em;}.cls-11,.cls-12,.cls-13{stroke-width:3px;}.cls-14{stroke:#fff;}.cls-15{stroke:#fcee21;}.cls-16{stroke:#ff7bac;}</style></defs><title>diagsvg</title><rect class="cls-1" x="51.5" y="123.37" width="272" height="265.63"/><rect class="cls-1" x="122.5" y="32.5" width="272" height="265.63"/><line class="cls-1" x1="122.5" y1="32.5" x2="51.5" y2="123.5"/><line class="cls-1" x1="394.5" y1="32.5" x2="323.5" y2="123.5"/><line class="cls-1" x1="122.5" y1="298.5" x2="51.5" y2="389.5"/><line class="cls-1" x1="394.5" y1="298.5" x2="323.5" y2="389.5"/><line class="cls-2" x1="87.5" y1="343.5" x2="90.5" y2="343.5"/><line class="cls-3" x1="96.41" y1="343.5" x2="353.54" y2="343.5"/><line class="cls-2" x1="356.5" y1="343.5" x2="359.5" y2="343.5"/><line class="cls-4" x1="87.5" y1="76.5" x2="87.5" y2="79.5"/><line class="cls-5" x1="87.5" y1="85.57" x2="87.5" y2="337.47"/><line class="cls-4" x1="87.5" y1="340.5" x2="87.5" y2="343.5"/><line class="cls-6" x1="122.5" y1="164.5" x2="120.65" y2="166.87"/><line class="cls-7" x1="117.11" y1="171.41" x2="55.12" y2="250.86"/><line class="cls-6" x1="53.35" y1="253.13" x2="51.5" y2="255.5"/><rect class="cls-8" x="438" y="130.58" width="146" height="178.42"/><text class="cls-9" transform="translate(443.49 147.69)"><tspan class="cls-10">	</tspan><tspan x="27.21" y="0">center</tspan><tspan class="cls-10" x="0" y="19.04">	</tspan><tspan x="27.21" y="19.04">extents.x</tspan><tspan class="cls-10" x="0" y="38.09">	</tspan><tspan x="27.21" y="38.09">extents.y</tspan><tspan class="cls-10" x="0" y="57.13">	</tspan><tspan x="27.21" y="57.13">extents.z</tspan><tspan class="cls-10" x="0" y="76.17">	</tspan><tspan x="27.21" y="76.17">width</tspan><tspan class="cls-10" x="0" y="95.22">	</tspan><tspan x="27.21" y="95.22">height</tspan><tspan class="cls-10" x="0" y="114.26">	</tspan><tspan x="27.21" y="114.26">depth</tspan><tspan class="cls-10" x="0" y="133.3">	</tspan><tspan x="27.21" y="133.3">min_corner()</tspan><tspan class="cls-10" x="0" y="152.35">	</tspan><tspan x="27.21" y="152.35">max_corner()</tspan></text><line class="cls-11" x1="447.15" y1="162.4" x2="460" y2="162.4"/><line class="cls-12" x1="453.95" y1="175.24" x2="453.95" y2="188.85"/><line class="cls-13" x1="450.93" y1="206.23" x2="458.48" y2="196.4"/><circle class="cls-14" cx="453.76" cy="144.45" r="5.86"/><line class="cls-11" x1="447.15" y1="219.83" x2="450.15" y2="219.83"/><line class="cls-11" x1="457" y1="219.83" x2="460" y2="219.83"/><line class="cls-12" x1="453.95" y1="231.16" x2="453.95" y2="234.16"/><line class="cls-12" x1="453.95" y1="241.77" x2="453.95" y2="244.77"/><line class="cls-13" x1="450.93" y1="262.9" x2="452.76" y2="260.53"/><line class="cls-13" x1="456.66" y1="255.46" x2="458.48" y2="253.08"/><circle class="cls-15" cx="453.76" cy="276.69" r="5.86"/><circle class="cls-16" cx="453.76" cy="295.59" r="5.86"/><line class="cls-2" x1="223" y1="210" x2="365" y2="210.5"/><line class="cls-4" x1="223.5" y1="77" x2="223.5" y2="210"/><line class="cls-6" x1="189" y1="255" x2="224" y2="210"/><circle class="cls-15" cx="122.75" cy="298.25" r="7.75"/><circle class="cls-16" cx="323.75" cy="123.25" r="7.75"/><circle class="cls-14" cx="223.75" cy="210.25" r="7.75"/></svg>