<svg id="Layer_1" data-name="Layer 1" xmlns="http://www.w3.org/2000/svg" viewBox="0 0 619 416"><defs><style>.cls-1,.cls-10,.cls-11,.cls-12,.cls-13,.cls-14,.cls-15,.cls-16,.cls-17,.cls-18,.cls-19,.cls-2,.cls-3,.cls-4,.cls-5,.cls-6,.cls-9{fill:none;stroke-miterlimit:10;}.cls-1,.cls-13,.cls-2,.cls-9{stroke:red;}.cls-1,.cls-13,.cls-14,.cls-15,.cls-16,.cls-19,.cls-2,.cls-3,.cls-4,.cls-5,.cls-6{stroke-linecap:round;}.cls-1,.cls-12,.cls-13,.cls-14,.cls-15,.cls-16,.cls-17,.cls-19,.cls-2,.cls-3,.cls-4,.cls-5,.cls-6{stroke-width:2px;}.cls-2{stroke-dasharray:0.99 5.93;}.cls-10,.cls-14,.cls-3,.cls-4{stroke:#39b54a;}.cls-4{stroke-dasharray:0.99 5.95;}.cls-11,.cls-15,.cls-5,.cls-6{stroke:#0083cc;}.cls-6{stroke-dasharray:1.03 6.18;}.cls-7{fill:#34424d;stroke:#34424d;stroke-linejoin:round;}.cls-10,.cls-11,.cls-7,.cls-9{stroke-width:3px;}.cls-8{fill:#dcdcdc;}.cls-12{stroke:#fff;}.cls-13{stroke-dasharray:0.91 5.47;}.cls-14{stroke-dasharray:0.97 5.82;}.cls-15{stroke-dasharray:0.88 5.26;}.cls-16,.cls-17,.cls-19{stroke:#fcee21;}.cls-16{stroke-dasharray:1 6;}.cls-18{stroke:gray;}.cls-19{stroke-dasharray:0.99 5.96;}</style></defs><title>diag</title><line class="cls-1" x1="88.5" y1="343.5" x2="89" y2="343.5"/><line class="cls-2" x1="94.93" y1="343.5" x2="355.03" y2="343.5"/><line class="cls-1" x1="358" y1="343.5" x2="358.5" y2="343.5"/><line class="cls-3" x1="87.5" y1="78.5" x2="87.5" y2="79"/><line class="cls-4" x1="87.5" y1="84.95" x2="87.5" y2="339.02"/><line class="cls-3" x1="87.5" y1="342" x2="87.5" y2="342.5"/><line class="cls-5" x1="122.5" y1="164.5" x2="122.19" y2="164.89"/><line class="cls-6" x1="118.39" y1="169.77" x2="53.71" y2="252.67"/><line class="cls-5" x1="51.81" y1="255.11" x2="51.5" y2="255.5"/><rect class="cls-7" x="438" y="130.58" width="131" height="178.42"/><path class="cls-8" d="M475.08,147.88a3.84,3.84,0,0,1-1.44-.27,3.11,3.11,0,0,1-1.16-.79,3.71,3.71,0,0,1-.77-1.28,4.89,4.89,0,0,1-.28-1.72,4.54,4.54,0,0,1,.31-1.74,4,4,0,0,1,.81-1.29,3.4,3.4,0,0,1,1.19-.79,3.7,3.7,0,0,1,1.44-.28,2.81,2.81,0,0,1,1.31.28,4.34,4.34,0,0,1,1,.64l-.67.86a3.73,3.73,0,0,0-.72-.5,1.92,1.92,0,0,0-.84-.19,2.13,2.13,0,0,0-1,.22,2.17,2.17,0,0,0-.77.61,3.12,3.12,0,0,0-.5,1,3.59,3.59,0,0,0-.19,1.22A3.91,3.91,0,0,0,473,145a2.75,2.75,0,0,0,.49.93,2.11,2.11,0,0,0,.75.61,2.3,2.3,0,0,0,1,.21,2.1,2.1,0,0,0,1-.23A4,4,0,0,0,477,146l.57.88a4.18,4.18,0,0,1-1.17.73A3.55,3.55,0,0,1,475.08,147.88Z"/><path class="cls-8" d="M482.12,147.88a3.72,3.72,0,0,1-1.46-.28,3.33,3.33,0,0,1-1.19-.8,3.7,3.7,0,0,1-.79-1.27,4.79,4.79,0,0,1-.29-1.71,4.67,4.67,0,0,1,.3-1.72,3.94,3.94,0,0,1,.78-1.29,3.6,3.6,0,0,1,1.11-.81,3.31,3.31,0,0,1,2.62,0,2.54,2.54,0,0,1,1,.74,3.24,3.24,0,0,1,.61,1.15,5.39,5.39,0,0,1,.2,1.5v.41a2.66,2.66,0,0,1,0,.34h-5.25a3,3,0,0,0,.77,2,2.43,2.43,0,0,0,1.82.73,3.09,3.09,0,0,0,1-.17,4.17,4.17,0,0,0,.9-.44l.47.86a6,6,0,0,1-1.14.56A3.91,3.91,0,0,1,482.12,147.88Zm-2.45-4.7h4.16a2.82,2.82,0,0,0-.5-1.8,1.74,1.74,0,0,0-1.42-.62,2,2,0,0,0-1.47.64,2.45,2.45,0,0,0-.5.76A3.05,3.05,0,0,0,479.67,143.18Z"/><path class="cls-8" d="M486.9,147.69v-7.77H488l.11,1.12h0a6,6,0,0,1,1.18-.94,2.68,2.68,0,0,1,1.43-.38,2.1,2.1,0,0,1,1.8.77,3.78,3.78,0,0,1,.57,2.27v4.93h-1.32v-4.75a2.71,2.71,0,0,0-.35-1.59,1.27,1.27,0,0,0-1.12-.49,1.94,1.94,0,0,0-1.07.3,8.1,8.1,0,0,0-1.06.9v5.63Z"/><path class="cls-8" d="M498.1,147.88a2.56,2.56,0,0,1-1.05-.19,1.72,1.72,0,0,1-.68-.53,2,2,0,0,1-.38-.81,4.93,4.93,0,0,1-.11-1.06V141h-1.15v-1l1.21-.08.16-2.18h1.11v2.18h2.09V141h-2.09v4.32a1.94,1.94,0,0,0,.26,1.11,1.06,1.06,0,0,0,.94.39,1.85,1.85,0,0,0,.44-.06,2.52,2.52,0,0,0,.44-.15l.25,1a5.71,5.71,0,0,1-.69.19A3.2,3.2,0,0,1,498.1,147.88Z"/><path class="cls-8" d="M504,147.88a3.72,3.72,0,0,1-1.46-.28,3.33,3.33,0,0,1-1.19-.8,3.7,3.7,0,0,1-.79-1.27,4.79,4.79,0,0,1-.29-1.71,4.67,4.67,0,0,1,.3-1.72,4.11,4.11,0,0,1,.78-1.29,3.53,3.53,0,0,1,1.12-.81,3.18,3.18,0,0,1,1.29-.28,3.27,3.27,0,0,1,1.32.26,2.58,2.58,0,0,1,1,.74,3.4,3.4,0,0,1,.6,1.15,5,5,0,0,1,.21,1.5c0,.14,0,.28,0,.41a2.66,2.66,0,0,1,0,.34h-5.25a3,3,0,0,0,.77,2,2.43,2.43,0,0,0,1.82.73,3.09,3.09,0,0,0,1-.17,4.49,4.49,0,0,0,.91-.44l.46.86a6.26,6.26,0,0,1-1.13.56A4,4,0,0,1,504,147.88Zm-2.45-4.7h4.16a2.76,2.76,0,0,0-.5-1.8,1.74,1.74,0,0,0-1.42-.62,2.14,2.14,0,0,0-.79.16,2.11,2.11,0,0,0-.68.48,2.45,2.45,0,0,0-.5.76A3.31,3.31,0,0,0,501.54,143.18Z"/><path class="cls-8" d="M508.77,147.69v-7.77h1.09l.11,1.4h0a3.51,3.51,0,0,1,1-1.16,2,2,0,0,1,1.24-.44,2.15,2.15,0,0,1,.83.16l-.25,1.16a2.13,2.13,0,0,0-.35-.1,2.37,2.37,0,0,0-.41,0,1.72,1.72,0,0,0-1,.4,3.14,3.14,0,0,0-.93,1.39v5Z"/><path class="cls-8" d="M475.16,167.08a3.72,3.72,0,0,1-1.46-.28,3.33,3.33,0,0,1-1.19-.8,3.7,3.7,0,0,1-.79-1.27,4.79,4.79,0,0,1-.29-1.71,4.67,4.67,0,0,1,.3-1.72,3.94,3.94,0,0,1,.78-1.29,3.6,3.6,0,0,1,1.11-.81,3.31,3.31,0,0,1,2.62,0,2.54,2.54,0,0,1,1,.74,3.24,3.24,0,0,1,.61,1.15,5.39,5.39,0,0,1,.2,1.5V163a2.66,2.66,0,0,1,0,.34h-5.25a3,3,0,0,0,.77,2,2.4,2.4,0,0,0,1.82.73,3.09,3.09,0,0,0,1-.17,4.17,4.17,0,0,0,.9-.44l.47.86a6,6,0,0,1-1.14.56A3.91,3.91,0,0,1,475.16,167.08Zm-2.45-4.7h4.16a2.82,2.82,0,0,0-.5-1.8A1.74,1.74,0,0,0,475,160a2,2,0,0,0-1.47.64,2.45,2.45,0,0,0-.5.76A3.12,3.12,0,0,0,472.71,162.38Z"/><path class="cls-8" d="M478.74,166.89l2.55-4.06-2.36-3.71h1.43l1,1.71.37.65c.12.21.26.43.4.64h.06l.35-.64.35-.65.95-1.71h1.37L482.9,163l2.53,3.92H484l-1.14-1.81-.42-.7c-.13-.23-.28-.46-.43-.69H482l-.4.68-.39.71-1.05,1.81Z"/><path class="cls-8" d="M489,167.08a2.5,2.5,0,0,1-1-.19,1.83,1.83,0,0,1-.69-.53,2,2,0,0,1-.37-.81,4.37,4.37,0,0,1-.11-1.06v-4.3h-1.16v-1l1.22-.08.16-2.18h1.1v2.18h2.1v1.07h-2.1v4.32a1.94,1.94,0,0,0,.27,1.11,1,1,0,0,0,.93.39,1.86,1.86,0,0,0,.45-.06,2.16,2.16,0,0,0,.43-.15l.26,1c-.21.07-.44.14-.7.2A3.72,3.72,0,0,1,489,167.08Z"/><path class="cls-8" d="M494.92,167.08a3.72,3.72,0,0,1-1.46-.28,3.33,3.33,0,0,1-1.19-.8,3.7,3.7,0,0,1-.79-1.27,4.79,4.79,0,0,1-.29-1.71,4.67,4.67,0,0,1,.3-1.72,3.94,3.94,0,0,1,.78-1.29,3.6,3.6,0,0,1,1.11-.81,3.31,3.31,0,0,1,2.62,0,2.54,2.54,0,0,1,1,.74,3.24,3.24,0,0,1,.61,1.15,5.39,5.39,0,0,1,.2,1.5V163a2.66,2.66,0,0,1,0,.34h-5.25a3,3,0,0,0,.77,2,2.4,2.4,0,0,0,1.82.73,3.09,3.09,0,0,0,1-.17,4.17,4.17,0,0,0,.9-.44l.47.86a6,6,0,0,1-1.14.56A3.91,3.91,0,0,1,494.92,167.08Zm-2.45-4.7h4.16a2.82,2.82,0,0,0-.5-1.8,1.74,1.74,0,0,0-1.42-.62,2,2,0,0,0-1.47.64,2.45,2.45,0,0,0-.5.76A3.12,3.12,0,0,0,492.47,162.38Z"/><path class="cls-8" d="M499.7,166.89v-7.77h1.09l.11,1.12H501a6,6,0,0,1,1.18-.94,2.68,2.68,0,0,1,1.43-.38,2.1,2.1,0,0,1,1.8.77,3.78,3.78,0,0,1,.57,2.27v4.93h-1.32v-4.75a2.71,2.71,0,0,0-.35-1.59,1.27,1.27,0,0,0-1.12-.49,1.94,1.94,0,0,0-1.07.3,8.1,8.1,0,0,0-1.06.9v5.63Z"/><path class="cls-8" d="M510.9,167.08a2.56,2.56,0,0,1-1-.19,1.72,1.72,0,0,1-.68-.53,2,2,0,0,1-.38-.81,4.93,4.93,0,0,1-.11-1.06v-4.3h-1.15v-1l1.21-.08.16-2.18H510v2.18h2.09v1.07H510v4.32a1.94,1.94,0,0,0,.26,1.11,1.06,1.06,0,0,0,.94.39,1.85,1.85,0,0,0,.44-.06,2.52,2.52,0,0,0,.44-.15l.25,1c-.21.07-.44.14-.69.2A3.82,3.82,0,0,1,510.9,167.08Z"/><path class="cls-8" d="M515.74,167.08a4.24,4.24,0,0,1-1.59-.3,4.82,4.82,0,0,1-1.31-.77l.66-.88a5.23,5.23,0,0,0,1,.67,2.86,2.86,0,0,0,1.24.26,1.69,1.69,0,0,0,1.16-.35,1.15,1.15,0,0,0,.38-.87.83.83,0,0,0-.16-.52,1.74,1.74,0,0,0-.41-.4,2.53,2.53,0,0,0-.57-.29l-.64-.26a8,8,0,0,1-.83-.33,3.37,3.37,0,0,1-.74-.44,2.44,2.44,0,0,1-.54-.62,1.62,1.62,0,0,1-.21-.85,2.13,2.13,0,0,1,.19-.87,1.92,1.92,0,0,1,.53-.7,2.45,2.45,0,0,1,.84-.47,3.7,3.7,0,0,1,2.47.09,4.35,4.35,0,0,1,1.06.62l-.62.84a4.26,4.26,0,0,0-.83-.5,2.3,2.3,0,0,0-1-.19,1.52,1.52,0,0,0-1.08.33,1.08,1.08,0,0,0-.34.79.82.82,0,0,0,.14.47,1.48,1.48,0,0,0,.39.35,3.13,3.13,0,0,0,.55.27l.65.25.84.34a3.35,3.35,0,0,1,.76.44,2.19,2.19,0,0,1,.55.65,1.87,1.87,0,0,1,.21.92,2.26,2.26,0,0,1-.18.9,2.14,2.14,0,0,1-.54.74,2.6,2.6,0,0,1-.9.5A3.86,3.86,0,0,1,515.74,167.08Z"/><path class="cls-8" d="M521.09,167.08a.89.89,0,0,1-.67-.28.94.94,0,0,1-.29-.71,1,1,0,0,1,.29-.74.89.89,0,0,1,.67-.28.91.91,0,0,1,.67.28,1,1,0,0,1,.28.74.93.93,0,0,1-.28.71A.91.91,0,0,1,521.09,167.08Z"/><path class="cls-8" d="M523.3,166.89l2.55-4.06-2.35-3.71h1.42l1,1.71.37.65c.13.21.26.43.4.64h.06l.35-.64.36-.65.94-1.71h1.38L527.46,163l2.53,3.92h-1.42l-1.14-1.81-.42-.7c-.13-.23-.28-.46-.43-.69h-.06l-.4.68c-.13.23-.26.47-.38.71l-1.06,1.81Z"/><path class="cls-8" d="M475.16,186.28a3.72,3.72,0,0,1-1.46-.28,3.33,3.33,0,0,1-1.19-.8,3.7,3.7,0,0,1-.79-1.27,4.79,4.79,0,0,1-.29-1.71,4.67,4.67,0,0,1,.3-1.72,3.94,3.94,0,0,1,.78-1.29,3.6,3.6,0,0,1,1.11-.81,3.31,3.31,0,0,1,2.62,0,2.54,2.54,0,0,1,1,.74,3.24,3.24,0,0,1,.61,1.15,5.39,5.39,0,0,1,.2,1.5v.41a2.66,2.66,0,0,1,0,.34h-5.25a3,3,0,0,0,.77,2,2.4,2.4,0,0,0,1.82.73,3.09,3.09,0,0,0,1-.17,4.17,4.17,0,0,0,.9-.44l.47.86a6,6,0,0,1-1.14.56A3.91,3.91,0,0,1,475.16,186.28Zm-2.45-4.7h4.16a2.82,2.82,0,0,0-.5-1.8,1.74,1.74,0,0,0-1.42-.62,2,2,0,0,0-1.47.64,2.45,2.45,0,0,0-.5.76A3.12,3.12,0,0,0,472.71,181.58Z"/><path class="cls-8" d="M478.74,186.09l2.55-4.06-2.36-3.71h1.43l1,1.71.37.65c.12.21.26.43.4.64h.06l.35-.64.35-.65.95-1.71h1.37l-2.35,3.85,2.53,3.92H484l-1.14-1.81-.42-.7c-.13-.23-.28-.46-.43-.69H482l-.4.68-.39.71-1.05,1.81Z"/><path class="cls-8" d="M489,186.28a2.5,2.5,0,0,1-1-.19,1.83,1.83,0,0,1-.69-.53,2,2,0,0,1-.37-.81,4.37,4.37,0,0,1-.11-1.06v-4.3h-1.16v-1l1.22-.08.16-2.18h1.1v2.18h2.1v1.07h-2.1v4.32a1.94,1.94,0,0,0,.27,1.11,1,1,0,0,0,.93.39,1.86,1.86,0,0,0,.45-.06,2.16,2.16,0,0,0,.43-.15l.26,1c-.21.07-.44.14-.7.2A3.72,3.72,0,0,1,489,186.28Z"/><path class="cls-8" d="M494.92,186.28a3.72,3.72,0,0,1-1.46-.28,3.33,3.33,0,0,1-1.19-.8,3.7,3.7,0,0,1-.79-1.27,4.79,4.79,0,0,1-.29-1.71,4.67,4.67,0,0,1,.3-1.72,3.94,3.94,0,0,1,.78-1.29,3.6,3.6,0,0,1,1.11-.81,3.31,3.31,0,0,1,2.62,0,2.54,2.54,0,0,1,1,.74,3.24,3.24,0,0,1,.61,1.15,5.39,5.39,0,0,1,.2,1.5v.41a2.66,2.66,0,0,1,0,.34h-5.25a3,3,0,0,0,.77,2,2.4,2.4,0,0,0,1.82.73,3.09,3.09,0,0,0,1-.17,4.17,4.17,0,0,0,.9-.44l.47.86a6,6,0,0,1-1.14.56A3.91,3.91,0,0,1,494.92,186.28Zm-2.45-4.7h4.16a2.82,2.82,0,0,0-.5-1.8,1.74,1.74,0,0,0-1.42-.62,2,2,0,0,0-1.47.64,2.45,2.45,0,0,0-.5.76A3.12,3.12,0,0,0,492.47,181.58Z"/><path class="cls-8" d="M499.7,186.09v-7.77h1.09l.11,1.12H501a6,6,0,0,1,1.18-.94,2.68,2.68,0,0,1,1.43-.38,2.1,2.1,0,0,1,1.8.77,3.78,3.78,0,0,1,.57,2.27v4.93h-1.32v-4.75a2.71,2.71,0,0,0-.35-1.59,1.27,1.27,0,0,0-1.12-.49,1.94,1.94,0,0,0-1.07.3,8.1,8.1,0,0,0-1.06.9v5.63Z"/><path class="cls-8" d="M510.9,186.28a2.56,2.56,0,0,1-1-.19,1.72,1.72,0,0,1-.68-.53,2,2,0,0,1-.38-.81,4.93,4.93,0,0,1-.11-1.06v-4.3h-1.15v-1l1.21-.08.16-2.18H510v2.18h2.09v1.07H510v4.32a1.94,1.94,0,0,0,.26,1.11,1.06,1.06,0,0,0,.94.39,1.85,1.85,0,0,0,.44-.06,2.52,2.52,0,0,0,.44-.15l.25,1c-.21.07-.44.14-.69.2A3.82,3.82,0,0,1,510.9,186.28Z"/><path class="cls-8" d="M515.74,186.28a4.24,4.24,0,0,1-1.59-.3,4.82,4.82,0,0,1-1.31-.77l.66-.88a5.23,5.23,0,0,0,1,.67,2.86,2.86,0,0,0,1.24.26,1.69,1.69,0,0,0,1.16-.35,1.15,1.15,0,0,0,.38-.87.85.85,0,0,0-.16-.52,1.74,1.74,0,0,0-.41-.4,2.53,2.53,0,0,0-.57-.29l-.64-.26a8,8,0,0,1-.83-.33,3.37,3.37,0,0,1-.74-.44,2.44,2.44,0,0,1-.54-.62,1.62,1.62,0,0,1-.21-.85,2.13,2.13,0,0,1,.19-.87,1.92,1.92,0,0,1,.53-.7,2.45,2.45,0,0,1,.84-.47,3.7,3.7,0,0,1,2.47.09,4.35,4.35,0,0,1,1.06.62l-.62.84a4.26,4.26,0,0,0-.83-.5,2.3,2.3,0,0,0-1-.19,1.52,1.52,0,0,0-1.08.33,1.08,1.08,0,0,0-.34.79.82.82,0,0,0,.14.47,1.48,1.48,0,0,0,.39.35,3.13,3.13,0,0,0,.55.27l.65.25.84.34a3.35,3.35,0,0,1,.76.44,2.19,2.19,0,0,1,.55.65,1.87,1.87,0,0,1,.21.92,2.26,2.26,0,0,1-.18.9,2.14,2.14,0,0,1-.54.74,2.6,2.6,0,0,1-.9.5A3.86,3.86,0,0,1,515.74,186.28Z"/><path class="cls-8" d="M521.09,186.28a.89.89,0,0,1-.67-.28.94.94,0,0,1-.29-.71,1,1,0,0,1,.29-.74.89.89,0,0,1,.67-.28.91.91,0,0,1,.67.28,1,1,0,0,1,.28.74.93.93,0,0,1-.28.71A.91.91,0,0,1,521.09,186.28Z"/><path class="cls-8" d="M524.2,189.44a3.75,3.75,0,0,1-.5,0,2.45,2.45,0,0,1-.41-.12l.25-1,.29.07a1.77,1.77,0,0,0,.3,0,1.42,1.42,0,0,0,1.1-.47,3.46,3.46,0,0,0,.66-1.2l.18-.57L523,178.32h1.36l1.58,4.3c.12.34.25.7.38,1.08l.38,1.11h.06c.12-.35.23-.72.34-1.1s.21-.75.32-1.09l1.39-4.3H530l-2.93,8.41a8.82,8.82,0,0,1-.46,1.07,3.68,3.68,0,0,1-.61.86,2.79,2.79,0,0,1-.8.57A2.44,2.44,0,0,1,524.2,189.44Z"/><path class="cls-8" d="M475.16,205.48a3.72,3.72,0,0,1-1.46-.28,3.33,3.33,0,0,1-1.19-.8,3.7,3.7,0,0,1-.79-1.27,4.79,4.79,0,0,1-.29-1.71,4.67,4.67,0,0,1,.3-1.72,3.94,3.94,0,0,1,.78-1.29,3.6,3.6,0,0,1,1.11-.81,3.31,3.31,0,0,1,2.62,0,2.54,2.54,0,0,1,1,.74,3.16,3.16,0,0,1,.61,1.15,5.39,5.39,0,0,1,.2,1.5v.41a2.66,2.66,0,0,1,0,.34h-5.25a3.06,3.06,0,0,0,.77,2,2.43,2.43,0,0,0,1.82.73,3.09,3.09,0,0,0,1-.17,4.17,4.17,0,0,0,.9-.44l.47.86a6,6,0,0,1-1.14.56A3.91,3.91,0,0,1,475.16,205.48Zm-2.45-4.7h4.16a2.82,2.82,0,0,0-.5-1.8,1.74,1.74,0,0,0-1.42-.62,2,2,0,0,0-1.47.64,2.52,2.52,0,0,0-.5.75A3.18,3.18,0,0,0,472.71,200.78Z"/><path class="cls-8" d="M478.74,205.29l2.55-4.06-2.36-3.72h1.43l1,1.72.37.65c.12.21.26.43.4.64h.06l.35-.64.35-.65.95-1.72h1.37l-2.35,3.86,2.53,3.92H484l-1.14-1.81-.42-.7c-.13-.24-.28-.46-.43-.69H482l-.4.68-.39.71-1.05,1.81Z"/><path class="cls-8" d="M489,205.48a2.5,2.5,0,0,1-1-.19,1.83,1.83,0,0,1-.69-.53,2,2,0,0,1-.37-.81,4.37,4.37,0,0,1-.11-1.06v-4.3h-1.16v-1l1.22-.08.16-2.17h1.1v2.17h2.1v1.08h-2.1v4.32a1.94,1.94,0,0,0,.27,1.11,1,1,0,0,0,.93.39,1.86,1.86,0,0,0,.45-.06,3.05,3.05,0,0,0,.43-.15l.26,1a5.41,5.41,0,0,1-.7.19A3.12,3.12,0,0,1,489,205.48Z"/><path class="cls-8" d="M494.92,205.48a3.72,3.72,0,0,1-1.46-.28,3.33,3.33,0,0,1-1.19-.8,3.7,3.7,0,0,1-.79-1.27,4.79,4.79,0,0,1-.29-1.71,4.67,4.67,0,0,1,.3-1.72,3.94,3.94,0,0,1,.78-1.29,3.6,3.6,0,0,1,1.11-.81,3.31,3.31,0,0,1,2.62,0,2.54,2.54,0,0,1,1,.74,3.16,3.16,0,0,1,.61,1.15,5.39,5.39,0,0,1,.2,1.5v.41a2.66,2.66,0,0,1,0,.34h-5.25a3.06,3.06,0,0,0,.77,2,2.43,2.43,0,0,0,1.82.73,3.09,3.09,0,0,0,1-.17,4.17,4.17,0,0,0,.9-.44l.47.86a6,6,0,0,1-1.14.56A3.91,3.91,0,0,1,494.92,205.48Zm-2.45-4.7h4.16a2.82,2.82,0,0,0-.5-1.8,1.74,1.74,0,0,0-1.42-.62,2,2,0,0,0-1.47.64,2.52,2.52,0,0,0-.5.75A3.18,3.18,0,0,0,492.47,200.78Z"/><path class="cls-8" d="M499.7,205.29v-7.78h1.09l.11,1.12H501a6.34,6.34,0,0,1,1.18-.93,2.68,2.68,0,0,1,1.43-.38,2.1,2.1,0,0,1,1.8.77,3.78,3.78,0,0,1,.57,2.27v4.93h-1.32v-4.75a2.71,2.71,0,0,0-.35-1.59,1.27,1.27,0,0,0-1.12-.49,1.94,1.94,0,0,0-1.07.3,7.38,7.38,0,0,0-1.06.9v5.63Z"/><path class="cls-8" d="M510.9,205.48a2.56,2.56,0,0,1-1-.19,1.72,1.72,0,0,1-.68-.53,2,2,0,0,1-.38-.81,4.93,4.93,0,0,1-.11-1.06v-4.3h-1.15v-1l1.21-.08.16-2.17H510v2.17h2.09v1.08H510v4.32a1.94,1.94,0,0,0,.26,1.11,1.06,1.06,0,0,0,.94.39,1.85,1.85,0,0,0,.44-.06,3.76,3.76,0,0,0,.44-.15l.25,1a5.71,5.71,0,0,1-.69.19A3.2,3.2,0,0,1,510.9,205.48Z"/><path class="cls-8" d="M515.74,205.48a4.24,4.24,0,0,1-1.59-.3,4.82,4.82,0,0,1-1.31-.77l.66-.88a5.23,5.23,0,0,0,1,.67,2.86,2.86,0,0,0,1.24.26,1.69,1.69,0,0,0,1.16-.35,1.17,1.17,0,0,0,.38-.87.88.88,0,0,0-.16-.53,1.7,1.7,0,0,0-.41-.39,2.53,2.53,0,0,0-.57-.29l-.64-.26c-.27-.1-.55-.2-.83-.33A3.37,3.37,0,0,1,514,201a2.44,2.44,0,0,1-.54-.62,1.65,1.65,0,0,1-.21-.85,2.13,2.13,0,0,1,.19-.87,1.92,1.92,0,0,1,.53-.7,2.45,2.45,0,0,1,.84-.47,3.7,3.7,0,0,1,2.47.09,4.35,4.35,0,0,1,1.06.62l-.62.84a4.26,4.26,0,0,0-.83-.5,2.3,2.3,0,0,0-1-.19,1.52,1.52,0,0,0-1.08.33,1.08,1.08,0,0,0-.34.79.82.82,0,0,0,.14.47,1.48,1.48,0,0,0,.39.35,3.13,3.13,0,0,0,.55.27l.65.25.84.34a3,3,0,0,1,.76.44,2.19,2.19,0,0,1,.55.65,1.87,1.87,0,0,1,.21.92,2.26,2.26,0,0,1-.18.9,2,2,0,0,1-.54.73,2.46,2.46,0,0,1-.9.51A3.86,3.86,0,0,1,515.74,205.48Z"/><path class="cls-8" d="M521.09,205.48a.89.89,0,0,1-.67-.28.94.94,0,0,1-.29-.71,1,1,0,0,1,.29-.74.89.89,0,0,1,.67-.28.91.91,0,0,1,.67.28,1,1,0,0,1,.28.74.93.93,0,0,1-.28.71A.91.91,0,0,1,521.09,205.48Z"/><path class="cls-8" d="M523.58,205.29v-.7l4.09-6H524v-1.08h5.31v.71l-4.09,6h4.22v1.07Z"/><path class="cls-8" d="M473.24,224.49l-2.16-7.78h1.34l1.16,4.5c.08.37.16.74.24,1.09s.14.71.22,1.07h.06c.09-.36.17-.72.26-1.08s.18-.72.27-1.08l1.2-4.5h1.28l1.22,4.5c.09.37.19.74.28,1.09s.18.71.26,1.07h.07l.24-1.07c.07-.35.15-.72.24-1.09l1.13-4.5h1.25l-2.08,7.78h-1.6L477,220.32c-.1-.38-.18-.75-.26-1.11s-.17-.74-.27-1.13h-.06c-.09.39-.17.77-.26,1.14s-.18.74-.29,1.11l-1.08,4.16Z"/><path class="cls-8" d="M484.17,215.12a.92.92,0,0,1-.65-.24.8.8,0,0,1-.27-.61.78.78,0,0,1,.27-.62,1,1,0,0,1,1.29,0,.78.78,0,0,1,.27.62.8.8,0,0,1-.27.61A.91.91,0,0,1,484.17,215.12Zm-.68,9.37v-7.78h1.32v7.78Z"/><path class="cls-8" d="M490.09,224.68a2.89,2.89,0,0,1-2.35-1.05,4.63,4.63,0,0,1-.87-3,4.77,4.77,0,0,1,.28-1.7,4,4,0,0,1,.74-1.29,3.3,3.3,0,0,1,1.08-.82,3,3,0,0,1,1.28-.29,2.64,2.64,0,0,1,1.16.24,4.84,4.84,0,0,1,1,.66l-.06-1.33v-3h1.33v11.39H492.6l-.11-.91h-.05a5,5,0,0,1-1.07.78A2.73,2.73,0,0,1,490.09,224.68Zm.28-1.1a2.16,2.16,0,0,0,1-.26,3.83,3.83,0,0,0,1-.81v-4.07a3.25,3.25,0,0,0-.95-.63,2.57,2.57,0,0,0-.94-.18,1.86,1.86,0,0,0-.87.21,2.29,2.29,0,0,0-.71.61,2.69,2.69,0,0,0-.48.94,3.84,3.84,0,0,0-.18,1.21,3.73,3.73,0,0,0,.56,2.19A1.81,1.81,0,0,0,490.37,223.58Z"/><path class="cls-8" d="M498.76,224.68a2.5,2.5,0,0,1-1.05-.19A1.83,1.83,0,0,1,497,224a2,2,0,0,1-.37-.81,4.35,4.35,0,0,1-.12-1.06v-4.3h-1.15v-1l1.22-.08.16-2.17h1.1v2.17H500v1.08h-2.1v4.32a1.94,1.94,0,0,0,.27,1.11,1,1,0,0,0,.93.39,1.86,1.86,0,0,0,.45-.06,3.58,3.58,0,0,0,.43-.15l.26,1a6.46,6.46,0,0,1-.7.19A3.18,3.18,0,0,1,498.76,224.68Z"/><path class="cls-8" d="M501.72,224.49V213.1H503v3.1l0,1.6a8,8,0,0,1,1.17-.9,2.67,2.67,0,0,1,1.42-.38,2.08,2.08,0,0,1,1.8.77,3.78,3.78,0,0,1,.57,2.27v4.93h-1.31v-4.75a2.79,2.79,0,0,0-.35-1.59,1.29,1.29,0,0,0-1.12-.49,1.91,1.91,0,0,0-1.07.3,6.88,6.88,0,0,0-1.06.9v5.63Z"/><path class="cls-8" d="M512.53,227.31a15.19,15.19,0,0,1-1.55-3.38,13.76,13.76,0,0,1,0-7.77,15.62,15.62,0,0,1,1.55-3.38l.82.38a12.21,12.21,0,0,0-1.38,3.29,14.24,14.24,0,0,0,0,7.18,12.08,12.08,0,0,0,1.38,3.29Z"/><path class="cls-8" d="M515.38,227.31l-.81-.39a12.4,12.4,0,0,0,1.38-3.29,14.24,14.24,0,0,0,0-7.18,12.54,12.54,0,0,0-1.38-3.29l.81-.38a15.15,15.15,0,0,1,1.55,3.38,13.76,13.76,0,0,1,0,7.77A14.75,14.75,0,0,1,515.38,227.31Z"/><path class="cls-8" d="M472,243.69V232.3h1.31v3.1l-.05,1.6a7,7,0,0,1,1.17-.9,2.64,2.64,0,0,1,1.42-.38,2.1,2.1,0,0,1,1.8.77,3.78,3.78,0,0,1,.57,2.27v4.93h-1.31v-4.75a2.79,2.79,0,0,0-.35-1.59,1.29,1.29,0,0,0-1.12-.49,2,2,0,0,0-1.08.3,8.1,8.1,0,0,0-1.05.9v5.63Z"/><path class="cls-8" d="M483.86,243.88a3.72,3.72,0,0,1-1.46-.28,3.3,3.3,0,0,1-1.18-.8,3.72,3.72,0,0,1-.8-1.27,4.79,4.79,0,0,1-.28-1.71,4.67,4.67,0,0,1,.29-1.72,4,4,0,0,1,.79-1.29,3.38,3.38,0,0,1,1.11-.81,3.22,3.22,0,0,1,1.29-.28,3.27,3.27,0,0,1,1.32.26,2.58,2.58,0,0,1,1,.74,3.4,3.4,0,0,1,.6,1.15,5,5,0,0,1,.21,1.5c0,.14,0,.28,0,.41a2.66,2.66,0,0,1,0,.34h-5.25a3,3,0,0,0,.78,2,2.41,2.41,0,0,0,1.81.73,3.15,3.15,0,0,0,1-.17,4.68,4.68,0,0,0,.9-.44l.46.86a6.26,6.26,0,0,1-1.13.56A4,4,0,0,1,483.86,243.88Zm-2.44-4.7h4.16a2.76,2.76,0,0,0-.51-1.8,1.72,1.72,0,0,0-1.41-.62,2.15,2.15,0,0,0-.8.16,2.22,2.22,0,0,0-.68.48,2.45,2.45,0,0,0-.5.76A3.31,3.31,0,0,0,481.42,239.18Z"/><path class="cls-8" d="M489.32,234.32a.93.93,0,0,1-.65-.24.82.82,0,0,1-.26-.61.81.81,0,0,1,.26-.62,1,1,0,0,1,1.3,0,.81.81,0,0,1,.26.62.82.82,0,0,1-.26.61A.93.93,0,0,1,489.32,234.32Zm-.67,9.37v-7.77H490v7.77Z"/><path class="cls-8" d="M495.21,247.28a6,6,0,0,1-1.32-.14,3.19,3.19,0,0,1-1-.41,2.16,2.16,0,0,1-.66-.65,1.77,1.77,0,0,1-.23-.9,1.64,1.64,0,0,1,.3-.94,3.29,3.29,0,0,1,.84-.82v-.06a1.44,1.44,0,0,1-.49-.49,1.37,1.37,0,0,1-.2-.78,1.4,1.4,0,0,1,.27-.86,2.28,2.28,0,0,1,.58-.58v-.06a3.24,3.24,0,0,1-.7-.86,2.4,2.4,0,0,1-.31-1.24,2.81,2.81,0,0,1,.23-1.15,2.78,2.78,0,0,1,.63-.87,2.68,2.68,0,0,1,.94-.55,3.28,3.28,0,0,1,1.13-.2,2.91,2.91,0,0,1,.6.06,3.29,3.29,0,0,1,.5.14H499v1h-1.6a2,2,0,0,1,.46.69,2.27,2.27,0,0,1,.18.91,2.71,2.71,0,0,1-.22,1.13,2.4,2.4,0,0,1-.61.85,2.7,2.7,0,0,1-.9.54,3.4,3.4,0,0,1-1.11.19,3.16,3.16,0,0,1-.6-.07,3.49,3.49,0,0,1-.57-.2,1.44,1.44,0,0,0-.35.39.9.9,0,0,0-.15.53.76.76,0,0,0,.29.61,1.76,1.76,0,0,0,1.09.24h1.5a3.82,3.82,0,0,1,2,.44,1.55,1.55,0,0,1,.68,1.42,2.11,2.11,0,0,1-.27,1,2.74,2.74,0,0,1-.78.86,4.19,4.19,0,0,1-1.24.58A6,6,0,0,1,495.21,247.28Zm.19-.92a3.53,3.53,0,0,0,1-.13,2.82,2.82,0,0,0,.78-.35,1.86,1.86,0,0,0,.5-.51,1.18,1.18,0,0,0,.17-.59.77.77,0,0,0-.4-.75,2.54,2.54,0,0,0-1.17-.21H495l-.49,0a1.91,1.91,0,0,1-.52-.1,2.27,2.27,0,0,0-.61.64,1.45,1.45,0,0,0-.19.67,1.13,1.13,0,0,0,.6,1A3.22,3.22,0,0,0,495.4,246.36Zm-.19-6a1.69,1.69,0,0,0,.63-.13,1.75,1.75,0,0,0,.53-.37,1.78,1.78,0,0,0,.36-.58,2.37,2.37,0,0,0,.12-.78,1.78,1.78,0,0,0-.48-1.33,1.57,1.57,0,0,0-1.16-.48,1.59,1.59,0,0,0-1.17.48,1.78,1.78,0,0,0-.48,1.33,2.13,2.13,0,0,0,.13.78,1.5,1.5,0,0,0,.36.58,1.56,1.56,0,0,0,1.16.5Z"/><path class="cls-8" d="M500.65,243.69V232.3H502v3.1l0,1.6a7,7,0,0,1,1.17-.9,2.64,2.64,0,0,1,1.42-.38,2.1,2.1,0,0,1,1.8.77,3.78,3.78,0,0,1,.57,2.27v4.93h-1.31v-4.75a2.79,2.79,0,0,0-.35-1.59,1.29,1.29,0,0,0-1.12-.49,2,2,0,0,0-1.08.3,8.1,8.1,0,0,0-1.05.9v5.63Z"/><path class="cls-8" d="M511.8,243.88a2.5,2.5,0,0,1-1.05-.19,1.83,1.83,0,0,1-.69-.53,2,2,0,0,1-.37-.81,4.37,4.37,0,0,1-.11-1.06V237h-1.16v-1l1.22-.08.16-2.18h1.1v2.18H513V237h-2.1v4.32a1.94,1.94,0,0,0,.27,1.11,1,1,0,0,0,.93.39,1.86,1.86,0,0,0,.45-.06,2.16,2.16,0,0,0,.43-.15l.26,1a5.89,5.89,0,0,1-.7.19A3.18,3.18,0,0,1,511.8,243.88Z"/><path class="cls-8" d="M516.87,246.51a14.75,14.75,0,0,1-1.55-3.38,13.76,13.76,0,0,1,0-7.77,15.15,15.15,0,0,1,1.55-3.38l.82.38a12.57,12.57,0,0,0-1.39,3.29,14.55,14.55,0,0,0,0,7.18,12.43,12.43,0,0,0,1.39,3.29Z"/><path class="cls-8" d="M519.72,246.51l-.82-.39a12.43,12.43,0,0,0,1.39-3.29,14.55,14.55,0,0,0,0-7.18,12.57,12.57,0,0,0-1.39-3.29l.82-.38a15.15,15.15,0,0,1,1.55,3.38,13.76,13.76,0,0,1,0,7.77A14.75,14.75,0,0,1,519.72,246.51Z"/><path class="cls-8" d="M474.66,263.08a2.88,2.88,0,0,1-2.34-1.05,4.63,4.63,0,0,1-.87-3,4.77,4.77,0,0,1,.28-1.7,3.86,3.86,0,0,1,.74-1.29,3.37,3.37,0,0,1,1.07-.82,3,3,0,0,1,1.28-.29,2.66,2.66,0,0,1,1.17.24,5.12,5.12,0,0,1,1,.66l-.06-1.33v-3h1.32v11.39h-1.08l-.12-.91h0a5,5,0,0,1-1.07.78A2.74,2.74,0,0,1,474.66,263.08ZM475,262a2.19,2.19,0,0,0,1-.26,4,4,0,0,0,1-.81v-4.07a3.28,3.28,0,0,0-1-.63,2.48,2.48,0,0,0-.93-.18,1.86,1.86,0,0,0-.87.21,2.32,2.32,0,0,0-.72.61,3.08,3.08,0,0,0-.48.94,4.16,4.16,0,0,0-.17,1.21,3.71,3.71,0,0,0,.56,2.2A1.83,1.83,0,0,0,475,262Z"/><path class="cls-8" d="M484,263.08a3.72,3.72,0,0,1-1.46-.28,3.33,3.33,0,0,1-1.19-.8,3.7,3.7,0,0,1-.79-1.27,4.79,4.79,0,0,1-.29-1.71,4.67,4.67,0,0,1,.3-1.72,3.94,3.94,0,0,1,.78-1.29,3.6,3.6,0,0,1,1.11-.81,3.31,3.31,0,0,1,2.62,0,2.54,2.54,0,0,1,1,.74,3.24,3.24,0,0,1,.61,1.15,5.39,5.39,0,0,1,.2,1.5V259a2.66,2.66,0,0,1,0,.34h-5.25a3,3,0,0,0,.77,2,2.4,2.4,0,0,0,1.82.73,3.09,3.09,0,0,0,1-.17,4.17,4.17,0,0,0,.9-.44l.47.86a6,6,0,0,1-1.14.56A3.91,3.91,0,0,1,484,263.08Zm-2.45-4.7h4.16a2.82,2.82,0,0,0-.5-1.8,1.74,1.74,0,0,0-1.42-.62,2,2,0,0,0-1.47.64,2.45,2.45,0,0,0-.5.76A3.12,3.12,0,0,0,481.59,258.38Z"/><path class="cls-8" d="M488.82,266.17V255.12h1.09l.11.89h.05a6.15,6.15,0,0,1,1.16-.77,2.92,2.92,0,0,1,1.32-.32,3.1,3.1,0,0,1,1.33.28,2.75,2.75,0,0,1,1,.8,3.9,3.9,0,0,1,.58,1.25,5.94,5.94,0,0,1,.2,1.64,5.39,5.39,0,0,1-.27,1.77,4,4,0,0,1-.74,1.32,3.06,3.06,0,0,1-2.35,1.1,2.64,2.64,0,0,1-1.08-.24,6,6,0,0,1-1.08-.65l0,1.36v2.62ZM492,262a1.83,1.83,0,0,0,.89-.22,2.1,2.1,0,0,0,.7-.6,3,3,0,0,0,.46-1,4.4,4.4,0,0,0,.17-1.3,5.35,5.35,0,0,0-.11-1.17,2.43,2.43,0,0,0-.36-.9,1.69,1.69,0,0,0-.64-.58,2,2,0,0,0-.94-.21,2.12,2.12,0,0,0-1,.27,6.23,6.23,0,0,0-1.08.78v4.08a3.82,3.82,0,0,0,1,.64A2.6,2.6,0,0,0,492,262Z"/><path class="cls-8" d="M499.88,263.08a2.5,2.5,0,0,1-1.05-.19,1.83,1.83,0,0,1-.69-.53,2,2,0,0,1-.37-.81,4.35,4.35,0,0,1-.12-1.06v-4.3H496.5v-1l1.22-.08.16-2.18H499v2.18h2.1v1.07H499v4.32a1.94,1.94,0,0,0,.27,1.11,1,1,0,0,0,.93.39,1.86,1.86,0,0,0,.45-.06,2.41,2.41,0,0,0,.43-.15l.26,1c-.22.07-.45.14-.7.2A3.81,3.81,0,0,1,499.88,263.08Z"/><path class="cls-8" d="M502.84,262.89V251.5h1.31v3.1l0,1.6a8,8,0,0,1,1.17-.9,2.67,2.67,0,0,1,1.42-.38,2.08,2.08,0,0,1,1.8.77,3.78,3.78,0,0,1,.57,2.27v4.93h-1.31v-4.75a2.79,2.79,0,0,0-.35-1.59,1.29,1.29,0,0,0-1.12-.49,1.91,1.91,0,0,0-1.07.3,7.49,7.49,0,0,0-1.06.9v5.63Z"/><path class="cls-8" d="M513.66,265.71a14.79,14.79,0,0,1-1.56-3.38,13.76,13.76,0,0,1,0-7.77,15.19,15.19,0,0,1,1.56-3.38l.81.38a12.21,12.21,0,0,0-1.38,3.29,14.28,14.28,0,0,0,0,7.19,12.15,12.15,0,0,0,1.38,3.28Z"/><path class="cls-8" d="M516.5,265.71l-.81-.39a12.15,12.15,0,0,0,1.38-3.28,14.28,14.28,0,0,0,0-7.19,12.21,12.21,0,0,0-1.38-3.29l.81-.38a15.15,15.15,0,0,1,1.55,3.38,13.52,13.52,0,0,1,0,7.77A14.75,14.75,0,0,1,516.5,265.71Z"/><path class="cls-8" d="M472,282.09v-7.77h1.09l.11,1.12h0a5.43,5.43,0,0,1,1.12-.94,2.4,2.4,0,0,1,1.3-.38,2.16,2.16,0,0,1,1.4.4,2.23,2.23,0,0,1,.75,1.09,6.27,6.27,0,0,1,1.22-1.08,2.39,2.39,0,0,1,1.33-.41,2.1,2.1,0,0,1,1.79.77,3.71,3.71,0,0,1,.58,2.27v4.93h-1.31v-4.75a2.79,2.79,0,0,0-.35-1.59,1.25,1.25,0,0,0-1.09-.49,2.87,2.87,0,0,0-1.95,1.2v5.63h-1.31v-4.75a2.7,2.7,0,0,0-.36-1.59,1.25,1.25,0,0,0-1.1-.49,2.87,2.87,0,0,0-1.95,1.2v5.63Z"/><path class="cls-8" d="M485.94,272.72a1,1,0,0,1-.65-.24.82.82,0,0,1-.26-.61.81.81,0,0,1,.26-.62,1,1,0,0,1,.65-.23,1,1,0,0,1,.65.23.78.78,0,0,1,.27.62.79.79,0,0,1-.27.61A.92.92,0,0,1,485.94,272.72Zm-.67,9.37v-7.77h1.31v7.77Z"/><path class="cls-8" d="M489.21,282.09v-7.77h1.08l.12,1.12h0a6.32,6.32,0,0,1,1.18-.94,2.7,2.7,0,0,1,1.43-.38,2.1,2.1,0,0,1,1.8.77,3.78,3.78,0,0,1,.57,2.27v4.93h-1.31v-4.75a2.79,2.79,0,0,0-.35-1.59,1.29,1.29,0,0,0-1.12-.49,2,2,0,0,0-1.08.3,7.48,7.48,0,0,0-1.05.9v5.63Z"/><path class="cls-8" d="M496.84,284.11v-.88h7.61v.88Z"/><path class="cls-8" d="M509,282.28a3.84,3.84,0,0,1-1.44-.27,3.19,3.19,0,0,1-1.16-.79,3.87,3.87,0,0,1-.77-1.28,5.13,5.13,0,0,1-.28-1.72,4.54,4.54,0,0,1,.31-1.74,3.89,3.89,0,0,1,.81-1.28,3.29,3.29,0,0,1,1.19-.8,3.7,3.7,0,0,1,1.44-.28,2.79,2.79,0,0,1,1.31.28,4.34,4.34,0,0,1,1,.64l-.67.86a3.73,3.73,0,0,0-.72-.5,1.92,1.92,0,0,0-.84-.19,2.13,2.13,0,0,0-1,.22,2.17,2.17,0,0,0-.77.61,3.12,3.12,0,0,0-.5,1,3.59,3.59,0,0,0-.19,1.22,3.91,3.91,0,0,0,.18,1.22,2.94,2.94,0,0,0,.49.93,2.06,2.06,0,0,0,.76.61,2.23,2.23,0,0,0,1,.22,2.11,2.11,0,0,0,1-.24,3.63,3.63,0,0,0,.83-.55l.57.88a4.18,4.18,0,0,1-1.17.73A3.37,3.37,0,0,1,509,282.28Z"/><path class="cls-8" d="M515.94,282.28a3.56,3.56,0,0,1-1.37-.27,3.3,3.3,0,0,1-1.14-.79,3.91,3.91,0,0,1-.79-1.28,4.67,4.67,0,0,1-.3-1.72,4.74,4.74,0,0,1,.3-1.74,4,4,0,0,1,.79-1.28,3.2,3.2,0,0,1,1.14-.8,3.39,3.39,0,0,1,1.37-.28,3.36,3.36,0,0,1,1.37.28,3.2,3.2,0,0,1,1.14.8,3.87,3.87,0,0,1,.8,1.28,5,5,0,0,1,.29,1.74,4.88,4.88,0,0,1-.29,1.72,3.77,3.77,0,0,1-.8,1.28,3.3,3.3,0,0,1-1.14.79A3.52,3.52,0,0,1,515.94,282.28Zm0-1.08a2,2,0,0,0,.91-.22,2.1,2.1,0,0,0,.72-.61,2.88,2.88,0,0,0,.45-.93,4.24,4.24,0,0,0,.16-1.22A4.19,4.19,0,0,0,518,277a3,3,0,0,0-.45-1,2.1,2.1,0,0,0-.72-.61,1.86,1.86,0,0,0-.91-.22,1.88,1.88,0,0,0-.91.22,2.07,2.07,0,0,0-.71.61,3.06,3.06,0,0,0-.46,1,4.56,4.56,0,0,0-.16,1.22,4.62,4.62,0,0,0,.16,1.22,2.89,2.89,0,0,0,.46.93,2.07,2.07,0,0,0,.71.61A2,2,0,0,0,515.94,281.2Z"/><path class="cls-8" d="M521.59,282.09v-7.77h1.09l.11,1.4h.05a3.4,3.4,0,0,1,1-1.16,2,2,0,0,1,1.24-.44,2.19,2.19,0,0,1,.83.16l-.26,1.16a1.89,1.89,0,0,0-.35-.1,2.25,2.25,0,0,0-.4,0,1.72,1.72,0,0,0-1,.4,3.15,3.15,0,0,0-.94,1.39v5Z"/><path class="cls-8" d="M527.14,282.09v-7.77h1.09l.11,1.12h0a6,6,0,0,1,1.18-.94,2.68,2.68,0,0,1,1.43-.38,2.1,2.1,0,0,1,1.8.77,3.78,3.78,0,0,1,.57,2.27v4.93h-1.32v-4.75a2.71,2.71,0,0,0-.35-1.59,1.27,1.27,0,0,0-1.12-.49,1.94,1.94,0,0,0-1.07.3,8.1,8.1,0,0,0-1.06.9v5.63Z"/><path class="cls-8" d="M539.05,282.28a3.77,3.77,0,0,1-1.47-.28,3.3,3.3,0,0,1-1.18-.8,3.56,3.56,0,0,1-.79-1.27,4.58,4.58,0,0,1-.29-1.71,4.88,4.88,0,0,1,.29-1.72,4,4,0,0,1,.79-1.29,3.38,3.38,0,0,1,1.11-.81,3.31,3.31,0,0,1,2.62,0,2.54,2.54,0,0,1,1,.74,3.4,3.4,0,0,1,.6,1.15,5,5,0,0,1,.21,1.5c0,.14,0,.28,0,.41a1.59,1.59,0,0,1,0,.34h-5.25a3.1,3.1,0,0,0,.78,2,2.38,2.38,0,0,0,1.82.73,3.13,3.13,0,0,0,1-.17,4.68,4.68,0,0,0,.9-.44l.47.86a6.36,6.36,0,0,1-1.14.56A4,4,0,0,1,539.05,282.28Zm-2.45-4.7h4.16a2.76,2.76,0,0,0-.51-1.8,1.71,1.71,0,0,0-1.41-.62,2.1,2.1,0,0,0-.79.16,2,2,0,0,0-.68.48,2.47,2.47,0,0,0-.51.76A3.39,3.39,0,0,0,536.6,277.58Z"/><path class="cls-8" d="M543.83,282.09v-7.77h1.09l.11,1.4h.05a3.4,3.4,0,0,1,1-1.16,2,2,0,0,1,1.24-.44,2.23,2.23,0,0,1,.83.16l-.26,1.16a1.89,1.89,0,0,0-.35-.1,2.25,2.25,0,0,0-.4,0,1.7,1.7,0,0,0-1,.4,3.15,3.15,0,0,0-.94,1.39v5Z"/><path class="cls-8" d="M551.49,284.91a14.75,14.75,0,0,1-1.55-3.38,13.76,13.76,0,0,1,0-7.77,15.15,15.15,0,0,1,1.55-3.38l.82.38a12.21,12.21,0,0,0-1.38,3.29,14.28,14.28,0,0,0,0,7.19,12.15,12.15,0,0,0,1.38,3.28Z"/><path class="cls-8" d="M554.34,284.91l-.81-.39a12.48,12.48,0,0,0,1.38-3.28,14.28,14.28,0,0,0,0-7.19,12.54,12.54,0,0,0-1.38-3.29l.81-.38a15.15,15.15,0,0,1,1.55,3.38,13.76,13.76,0,0,1,0,7.77A14.75,14.75,0,0,1,554.34,284.91Z"/><path class="cls-8" d="M472,301.29v-7.78h1.09l.11,1.12h0a5.71,5.71,0,0,1,1.12-.93,2.4,2.4,0,0,1,1.3-.38,2.22,2.22,0,0,1,1.4.39,2.31,2.31,0,0,1,.75,1.1,6.27,6.27,0,0,1,1.22-1.08,2.39,2.39,0,0,1,1.33-.41,2.1,2.1,0,0,1,1.79.77,3.71,3.71,0,0,1,.58,2.27v4.93h-1.31v-4.75a2.79,2.79,0,0,0-.35-1.59,1.25,1.25,0,0,0-1.09-.49,2.87,2.87,0,0,0-1.95,1.2v5.63h-1.31v-4.75a2.7,2.7,0,0,0-.36-1.59,1.25,1.25,0,0,0-1.1-.49,2.87,2.87,0,0,0-1.95,1.2v5.63Z"/><path class="cls-8" d="M487.06,301.48a2.36,2.36,0,0,1-1.62-.57,2.09,2.09,0,0,1-.65-1.63,2.15,2.15,0,0,1,1.14-2,9.14,9.14,0,0,1,3.63-1,3.51,3.51,0,0,0-.07-.72,1.8,1.8,0,0,0-.25-.62,1.31,1.31,0,0,0-.49-.44,1.68,1.68,0,0,0-.79-.17,3.12,3.12,0,0,0-1.26.26,6.21,6.21,0,0,0-1.06.57l-.51-.91a8.59,8.59,0,0,1,1.33-.68,4.36,4.36,0,0,1,1.72-.33,2.39,2.39,0,0,1,2.07.88,3.87,3.87,0,0,1,.64,2.32v4.77H489.8l-.11-.93h-.05a6.43,6.43,0,0,1-1.2.8A3.11,3.11,0,0,1,487.06,301.48Zm.39-1.05a2.16,2.16,0,0,0,1.05-.27,5,5,0,0,0,1.06-.77v-2.16a11.93,11.93,0,0,0-1.64.3,4.41,4.41,0,0,0-1.07.42,1.7,1.7,0,0,0-.6.55,1.33,1.33,0,0,0-.18.68,1.09,1.09,0,0,0,.4,1A1.65,1.65,0,0,0,487.45,300.43Z"/><path class="cls-8" d="M492.25,301.29l2.54-4.06-2.35-3.72h1.42l1,1.72.37.65c.13.21.26.43.4.64h.06l.36-.64c.11-.22.23-.44.35-.65l.94-1.72h1.38l-2.35,3.86,2.52,3.92h-1.42l-1.14-1.81-.41-.7c-.14-.24-.28-.46-.43-.69h-.07l-.4.68c-.13.23-.25.47-.38.71l-1.06,1.81Z"/><path class="cls-8" d="M499.35,303.31v-.88H507v.88Z"/><path class="cls-8" d="M511.54,301.48a3.84,3.84,0,0,1-1.44-.27,3.19,3.19,0,0,1-1.16-.79,3.87,3.87,0,0,1-.77-1.28,5.13,5.13,0,0,1-.28-1.72,4.73,4.73,0,0,1,.31-1.74,4,4,0,0,1,.81-1.29,3.61,3.61,0,0,1,1.2-.8,3.83,3.83,0,0,1,1.43-.27,2.91,2.91,0,0,1,1.31.27,4.75,4.75,0,0,1,1,.65l-.67.86a3.67,3.67,0,0,0-.71-.5,1.79,1.79,0,0,0-.84-.19,2.14,2.14,0,0,0-1,.22,2.26,2.26,0,0,0-.77.61,3.12,3.12,0,0,0-.5,1,3.86,3.86,0,0,0-.19,1.22,3.8,3.8,0,0,0,.18,1.21,2.89,2.89,0,0,0,.49.94,2.14,2.14,0,0,0,.76.61,2.25,2.25,0,0,0,1,.21,2.08,2.08,0,0,0,1-.23,4,4,0,0,0,.83-.55l.57.88a4.28,4.28,0,0,1-1.16.73A3.64,3.64,0,0,1,511.54,301.48Z"/><path class="cls-8" d="M518.45,301.48a3.47,3.47,0,0,1-1.36-.27,3.24,3.24,0,0,1-1.15-.79,3.91,3.91,0,0,1-.79-1.28,4.67,4.67,0,0,1-.3-1.72,4.74,4.74,0,0,1,.3-1.74,4.18,4.18,0,0,1,.79-1.29,3.41,3.41,0,0,1,1.15-.8,3.47,3.47,0,0,1,1.36-.27,3.41,3.41,0,0,1,2.52,1.07,4.18,4.18,0,0,1,.79,1.29,4.74,4.74,0,0,1,.29,1.74,4.67,4.67,0,0,1-.29,1.72,3.91,3.91,0,0,1-.79,1.28,3.33,3.33,0,0,1-1.15.79A3.52,3.52,0,0,1,518.45,301.48Zm0-1.09a2,2,0,0,0,.92-.21,2.16,2.16,0,0,0,.71-.61,2.65,2.65,0,0,0,.45-.94,4.12,4.12,0,0,0,.16-1.21,4.19,4.19,0,0,0-.16-1.22,2.84,2.84,0,0,0-.45-1,2.16,2.16,0,0,0-.71-.61,1.92,1.92,0,0,0-.92-.22,1.88,1.88,0,0,0-.91.22,2.07,2.07,0,0,0-.71.61,3.06,3.06,0,0,0-.46,1,4.56,4.56,0,0,0-.16,1.22,4.49,4.49,0,0,0,.16,1.21,2.85,2.85,0,0,0,.46.94,2.07,2.07,0,0,0,.71.61A2,2,0,0,0,518.45,300.39Z"/><path class="cls-8" d="M524.1,301.29v-7.78h1.09l.11,1.41h.05a3.66,3.66,0,0,1,1-1.17,2.05,2.05,0,0,1,1.24-.43,2.19,2.19,0,0,1,.83.16l-.26,1.15-.35-.09a2.25,2.25,0,0,0-.4,0,1.72,1.72,0,0,0-1,.4,3.15,3.15,0,0,0-.94,1.39v5Z"/><path class="cls-8" d="M529.65,301.29v-7.78h1.09l.11,1.12h0a6.69,6.69,0,0,1,1.18-.93,2.7,2.7,0,0,1,1.43-.38,2.1,2.1,0,0,1,1.8.77,3.78,3.78,0,0,1,.57,2.27v4.93h-1.31v-4.75a2.7,2.7,0,0,0-.36-1.59,1.26,1.26,0,0,0-1.12-.49,1.94,1.94,0,0,0-1.07.3,6.86,6.86,0,0,0-1,.9v5.63Z"/><path class="cls-8" d="M541.56,301.48a3.81,3.81,0,0,1-1.47-.28,3.38,3.38,0,0,1-1.18-.8,3.56,3.56,0,0,1-.79-1.27,4.79,4.79,0,0,1-.29-1.71,4.67,4.67,0,0,1,.3-1.72,3.77,3.77,0,0,1,.78-1.29,3.6,3.6,0,0,1,1.11-.81,3.31,3.31,0,0,1,2.62,0,2.54,2.54,0,0,1,1,.74,3.15,3.15,0,0,1,.6,1.15,5,5,0,0,1,.21,1.5c0,.14,0,.28,0,.41a1.59,1.59,0,0,1,0,.34h-5.24a3.06,3.06,0,0,0,.77,2,2.43,2.43,0,0,0,1.82.73,3.13,3.13,0,0,0,1-.17,4.41,4.41,0,0,0,.9-.44l.47.86a6,6,0,0,1-1.14.56A3.91,3.91,0,0,1,541.56,301.48Zm-2.45-4.7h4.16a2.82,2.82,0,0,0-.5-1.8,1.74,1.74,0,0,0-1.42-.62,2,2,0,0,0-1.47.64,2.55,2.55,0,0,0-.51.75A3.46,3.46,0,0,0,539.11,296.78Z"/><path class="cls-8" d="M546.34,301.29v-7.78h1.09l.11,1.41h.05a3.66,3.66,0,0,1,1-1.17,2.05,2.05,0,0,1,1.24-.43,2.19,2.19,0,0,1,.83.16l-.26,1.15-.35-.09a2.25,2.25,0,0,0-.4,0,1.72,1.72,0,0,0-1,.4,3.15,3.15,0,0,0-.94,1.39v5Z"/><path class="cls-8" d="M554,304.11a15.19,15.19,0,0,1-1.55-3.38,13.76,13.76,0,0,1,0-7.77,15.62,15.62,0,0,1,1.55-3.38l.82.38a12.21,12.21,0,0,0-1.38,3.29,14.24,14.24,0,0,0,0,7.18,12.08,12.08,0,0,0,1.38,3.29Z"/><path class="cls-8" d="M556.85,304.11l-.81-.39a12.08,12.08,0,0,0,1.38-3.29,14.24,14.24,0,0,0,0-7.18A12.21,12.21,0,0,0,556,290l.81-.38A15.15,15.15,0,0,1,558.4,293a13.76,13.76,0,0,1,0,7.77A14.75,14.75,0,0,1,556.85,304.11Z"/><line class="cls-9" x1="447.15" y1="162.4" x2="460" y2="162.4"/><line class="cls-10" x1="453.95" y1="175.24" x2="453.95" y2="188.85"/><line class="cls-11" x1="450.93" y1="206.23" x2="458.48" y2="196.4"/><circle class="cls-12" cx="453.76" cy="144.45" r="5.86"/><line class="cls-1" x1="447.15" y1="219.83" x2="447.65" y2="219.83"/><line class="cls-13" x1="453.12" y1="219.83" x2="456.76" y2="219.83"/><line class="cls-1" x1="459.5" y1="219.83" x2="460" y2="219.83"/><line class="cls-3" x1="453.95" y1="231.16" x2="453.95" y2="231.66"/><line class="cls-14" x1="453.95" y1="237.48" x2="453.95" y2="241.36"/><line class="cls-3" x1="453.95" y1="244.27" x2="453.95" y2="244.77"/><line class="cls-5" x1="450.93" y1="262.9" x2="451.23" y2="262.51"/><line class="cls-15" x1="454.44" y1="258.34" x2="456.58" y2="255.56"/><line class="cls-5" x1="458.18" y1="253.48" x2="458.48" y2="253.08"/><circle class="cls-16" cx="453.76" cy="276.69" r="5.86"/><circle class="cls-17" cx="453.76" cy="295.59" r="5.86"/><line class="cls-1" x1="224" y1="210" x2="358" y2="210.5"/><line class="cls-3" x1="223.5" y1="79" x2="223.5" y2="210"/><line class="cls-5" x1="187.11" y1="256.36" x2="223.5" y2="210"/><circle class="cls-12" cx="223.75" cy="210.25" r="7.75"/><rect class="cls-18" x="51.5" y="123.37" width="272" height="265.63"/><rect class="cls-18" x="122.5" y="32.5" width="272" height="265.63"/><line class="cls-18" x1="122.5" y1="32.5" x2="51.5" y2="123.5"/><line class="cls-18" x1="394.5" y1="32.5" x2="323.5" y2="123.5"/><line class="cls-18" x1="122.5" y1="298.5" x2="51.5" y2="389.5"/><line class="cls-18" x1="394.5" y1="298.5" x2="323.5" y2="389.5"/><circle class="cls-19" cx="122.75" cy="298.25" r="7.75"/><circle class="cls-17" cx="322.75" cy="123.46" r="7.75"/></svg>